<?xml version="1.0" encoding="UTF-8"?>
<svg width="365px" height="365px" viewBox="0 0 365 365" version="1.1" xmlns="http://www.w3.org/2000/svg" xmlns:xlink="http://www.w3.org/1999/xlink">
    <!-- Generator: Sketch 42 (36781) - http://www.bohemiancoding.com/sketch -->
    <title>logo-gsw-primary-yellow1</title>
    <desc>Created with Sketch.</desc>
    <defs></defs>
    <g id="Page-1" stroke="none" stroke-width="1" fill="none" fill-rule="evenodd">
        <g id="logo-gsw-primary-yellow" fill-rule="nonzero" fill="#008CA0">
            <path d="M131.1,306.1 C208.7,302.5 285.7,303.7 317.7,304.5 C316.3,306 314.9,307.5 313.6,308.9 C289.8,307.1 234.3,304.2 131.1,306.1 Z M17.2,202.9 C20,198.7 23,194.1 26.1,189.1 L14.7,254 C12.6,249.1 10.8,244.1 9.1,239 L17.2,202.9 Z M6.4,229.7 C5.7,227 5,224.2 4.4,221.5 C6.3,218.8 8.4,215.8 10.8,212.3 L6.4,229.7 Z M31.3,180.8 C35.3,174.2 39.5,167.2 43.6,159.7 L23.9,272.4 C21.5,268.3 19.3,264 17.3,259.7 L31.3,180.8 Z M49.4,149.2 C54.5,139.5 59.5,129.4 64.1,119.1 L34.1,288.5 C31.5,284.8 29,281.1 26.6,277.3 L49.4,149.2 Z M77.7,96.5 C78.7,97.6 79.7,98.7 80.7,99.7 C81.4,130.8 83.7,221.4 86.3,286.2 C84.9,286.4 83.5,286.5 82.2,286.7 C79.3,218.4 78.1,132 77.7,96.5 Z M222.9,225.9 L223,226.2 L223,226.2 L222.9,225.9 C223.1,226.1 223.3,226.2 223.6,226.4 L223,226.2 L238.5,275.4 C234.6,275.5 230.7,275.6 226.8,275.8 L207.8,215.5 C213,219.1 218,222.6 222.9,225.9 Z M290.4,274.7 L286.5,262.5 C300.5,269.1 311.1,273 317.6,275.1 C308.4,274.9 299.4,274.8 290.4,274.7 Z M281.7,260.3 L286.3,274.8 L274.4,274.8 L267.6,253.1 C272.6,255.7 277.3,258.1 281.7,260.3 Z M262.7,250.4 L270.4,274.8 C266.6,274.8 262.7,274.9 258.9,274.9 L248.8,242.3 C253.6,245.2 258.3,247.9 262.7,250.4 Z M243.8,239.4 L254.8,275 L242.5,275.3 L227.9,229.3 C233.4,232.9 238.7,236.3 243.8,239.4 Z M202.2,211.3 L222.9,275.9 C219.1,276 215.3,276.2 211.6,276.4 L187.5,200.1 C192.5,204 197.4,207.7 202.2,211.3 Z M181.8,195.6 L207.5,276.5 C203.4,276.7 199.3,276.9 195.2,277.1 L164.7,181.5 C170.5,186.5 176.2,191.2 181.8,195.6 Z M159.4,177 L191.3,277.4 C187.6,277.6 184,277.8 180.3,278 L144.1,163.4 C149.3,168.2 154.4,172.7 159.4,177 Z M138.2,158.1 L176.3,278.3 C172.4,278.6 168.5,278.8 164.7,279.1 L121.7,142.4 C127.3,147.8 132.8,153.1 138.2,158.1 Z M115,135.8 L160.8,279.3 C157,279.6 153.3,279.9 149.6,280.1 L99.4,119.7 C104.6,125.3 109.9,130.7 115,135.8 Z M93,113.2 L145.6,280.6 C141.4,280.9 137.3,281.3 133.3,281.6 L93.5,153.7 C92.9,137.6 92.4,123.4 92.1,112.2 C92.4,112.5 92.7,112.8 93,113.2 Z M62.8,210 L62.2,209.9 L47.9,291 C43.9,291.5 40.4,292 37.3,292.5 L63.8,143.1 C63.5,163.1 63.1,186.5 62.8,210 Z M94.2,169.7 L129.4,282 C125.9,282.3 122.4,282.6 119.1,282.9 L95.9,209.2 C95.2,195.5 94.7,182.2 94.2,169.7 Z M96.6,225 L115.1,283.2 C109.9,283.7 104.8,284.2 100,284.7 C98.7,265.8 97.6,245.4 96.6,225 Z M51.9,290.5 L62.6,230.2 C62.4,251.4 62.2,271.8 62.3,289.2 C58.6,289.6 55.2,290 51.9,290.5 Z M62.4,313.6 C62.4,315.8 62.5,317.8 62.5,319.8 C60.3,317.9 58.1,315.9 56,313.9 C58,313.8 60,313.7 62.4,313.6 Z M83.3,313 C84.6,313 86,312.9 87.4,312.9 C87.9,323.2 88.4,332 88.9,339.1 C87.5,338.3 86.1,337.4 84.7,336.5 C84.2,329.2 83.8,321.4 83.3,313 Z M182.3,0.7 C282.9,0.7 364.4,82.2 364.4,182.8 C364.4,212.7 357.1,241 344.3,265.9 C217.7,237.5 127.4,150 92.1,110.5 C91.6,95.8 91.4,86.7 91.4,86.7 L85.8,84.2 L80.5,88.8 C80.5,88.8 80.6,91.9 80.7,97.2 C79.5,95.7 78.5,94.5 77.8,93.6 C77.7,85.1 77.7,80.2 77.7,80.2 L69.9,80.2 L69.8,84.9 L65.1,86 C65.1,86 64.9,95.9 64.6,111.6 C40.9,165.2 15,195.9 2.2,209 C1,200.4 0.3,191.7 0.3,182.8 C0.3,82.2 81.8,0.7 182.3,0.7 Z M105.6,347.9 C104.3,338.1 103.1,326.1 102,312.5 C158.6,311.3 245.3,310.8 305.3,316.9 C272.9,346.7 229.7,364.8 182.2,364.8 C154.9,364.9 128.9,358.8 105.6,347.9 Z" id="Shape"></path>
        </g>
    </g>
</svg>